<?xml version="1.0" encoding="utf-8"?>
<!-- Generator: Adobe Illustrator 19.2.0, SVG Export Plug-In . SVG Version: 6.00 Build 0)  -->
<svg version="1.1" id="Layer_1" xmlns="http://www.w3.org/2000/svg" xmlns:xlink="http://www.w3.org/1999/xlink" x="0px" y="0px"
	 viewBox="0 0 471.8 141.7" style="enable-background:new 0 0 471.8 141.7;" xml:space="preserve">
<style type="text/css">
	.st0{fill:#ffffff;}
</style>
<polygon id="XMLID_23_" class="st0" points="252.3,27.6 255.8,27.6 265.2,42 264.8,39.5 264.8,27.6 268,27.6 268,47.4 264.8,47.4 
	255.5,32.3 255.5,35.2 255.5,47.4 252.3,47.4 "/>
<rect id="XMLID_22_" x="200.9" y="27.6" class="st0" width="3.2" height="20.5"/>
<polygon id="XMLID_21_" class="st0" points="163.6,27.6 175.8,27.6 175.8,30.5 166.9,30.5 166.9,36.2 174.7,36.2 174.7,39.1 
	166.9,39.1 166.9,44.9 175.8,44.9 175.8,47.4 163.6,47.4 "/>
<path id="XMLID_20_" class="st0" d="M143.2,30.1c2.2-2.2,4.7-2.9,7.5-2.9c1.4,0,2.9,0.4,4.3,0.7c1.1,0.4,2.2,1.1,2.9,2.2l0.4,0.4
	h-0.4l-2.2,2.2l-0.4-0.4c-1.1-1.4-2.9-2.2-5-2.2c-2.2,0-3.6,0.7-5,2.2c-1.4,1.4-2.2,3.2-2.2,5.4c0,2.2,0.7,3.9,2.2,5.4
	c1.4,1.4,3.2,2.2,5,2.2c2.2,0,3.9-0.7,5.4-2.2c0.7-0.7,1.4-1.8,1.4-3.6H150v-2.9h10V37c0,0.4,0,1.1,0,1.4c0,2.9-0.7,5-2.5,6.8
	c-1.8,2.2-4.3,2.9-7.5,2.9c-2.9,0-5.4-1.1-7.5-3.2c-2.2-2.2-3.2-4.7-3.2-7.5C139.9,34.8,141,31.9,143.2,30.1"/>
<path id="XMLID_19_" class="st0" d="M45.6,30.9l45.6,26.2L80,68.2l-38-38C43.1,30.1,44.1,30.5,45.6,30.9"/>
<path id="XMLID_18_" class="st0" d="M39.5,106.2V34.4c0-0.7,0-1.4,0.4-2.2l38.4,38.4l-38.4,38.4C39.5,108,39.5,107.6,39.5,106.2"/>
<path id="XMLID_17_" class="st0" d="M45.6,109.8c-1.1,0.7-2.5,1.1-3.2,0.7l38-38l11.1,11.1L45.6,109.8z"/>
<path id="XMLID_16_" class="st0" d="M109.1,73.9L94,82.5L82.2,70.7L94,58.8l15.1,8.6c1.8,1.1,2.5,2.2,2.5,3.6
	C112,71.8,110.9,73.2,109.1,73.9"/>
<path id="XMLID_15_" class="st0" d="M176.5,97.6c-3.9,4.3-8.6,6.5-15.1,6.5c-11.8,0-21.9-9.7-21.9-21.5s10-21.5,21.9-21.5
	c6.5,0,11.5,2.5,14.7,6.1l-3.9,3.9c-2.5-2.5-6.1-4.3-10.8-4.3c-8.6,0-15.4,7.2-15.4,15.8s6.8,15.8,15.4,15.8c5.7,0,9-2.2,10.8-4.3
	c1.8-1.8,2.9-3.9,3.2-7.5h-14v-5.7h19.7c0.4,1.1,0.4,2.2,0.4,3.6C181.6,88.3,180.5,93.7,176.5,97.6"/>
<polygon id="XMLID_14_" class="st0" points="177.6,30.5 177.6,27.6 192,27.6 192,30.5 186.2,30.5 186.2,47.4 183.4,47.4 183.4,30.5 
	"/>
<path id="XMLID_13_" class="st0" d="M197.7,81.8c4.3,0,7.9,3.6,7.9,8.6c0,5-3.6,8.6-7.9,8.6s-7.9-3.6-7.9-8.6
	C189.8,84.7,193.4,81.8,197.7,81.8 M197.7,104.1c7.9,0,14-5.7,14-14s-6.5-14-14-14s-14,5.7-14,14S190.2,104.1,197.7,104.1"/>
<polygon id="XMLID_12_" class="st0" points="206.7,30.5 206.7,27.6 221,27.6 221,30.5 215.3,30.5 215.3,47.4 212.4,47.4 212.4,30.5 
	"/>
<path id="XMLID_11_" class="st0" d="M228.2,81.8c4.3,0,7.9,3.6,7.9,8.6c0,5-3.6,8.6-7.9,8.6s-7.9-3.6-7.9-8.6
	C220.3,84.7,223.9,81.8,228.2,81.8 M228.2,104.1c7.9,0,14-5.7,14-14s-6.5-14-14-14c-7.9,0-14,5.7-14,14
	C214.2,98.3,220.7,104.1,228.2,104.1"/>
<path id="XMLID_10_" class="st0" d="M258.7,81.8c4.3,0,7.5,3.6,7.5,8.6c0,5-3.2,8.3-7.5,8.3c-4.3,0-7.9-3.6-7.9-8.3
	C250.8,85.4,254.4,81.8,258.7,81.8 M271.6,77.1h-5.7v2.2h-0.4c-1.4-1.8-3.9-3.2-7.2-3.2c-6.8,0-13.3,6.1-13.3,14s6.5,14,13.3,14
	c3.2,0,6.1-1.4,7.2-3.2h0.4v2.2c0,5.4-2.9,8.3-7.5,8.3c-3.6,0-6.1-2.9-7.2-5l-5.4,2.2c1.4,3.6,5.7,8.3,12.2,8.3
	c7.2,0,13.3-4.3,13.3-14.4L271.6,77.1L271.6,77.1z"/>
<rect id="XMLID_9_" x="275.6" y="61.7" class="st0" width="6.1" height="40.9"/>
<path id="XMLID_8_" class="st0" d="M298.2,81.1c2.5,0,4.7,1.1,5,2.9l-12.6,5C290.6,84.3,295,81.1,298.2,81.1 M298.5,98.7
	c-3.2,0-5.4-1.4-6.8-4.3l18.7-7.9l-0.7-1.4c-1.1-3.2-4.7-9-11.8-9s-13.3,5.7-13.3,14c0,7.9,5.7,14,14,14c6.5,0,10-3.9,11.5-6.1
	l-5-3.6C303.9,96.9,301.8,98.7,298.5,98.7"/>
<path id="XMLID_7_" class="st0" d="M338.7,67.8c4.7,0,7.2,3.9,7.2,7.2s-2.5,7.2-7.2,7.2h-8.6V67.8H338.7 M338.7,87.6
	c6.8,0,13.3-5,13.3-12.6c0-7.9-6.8-12.6-13.3-12.6H324v40.9h6.1V87.9L338.7,87.6"/>
<rect id="XMLID_6_" x="355.6" y="61.7" class="st0" width="6.1" height="40.9"/>
<polygon id="XMLID_4_" class="st0" points="400.4,115.5 394,115.5 400.4,101.9 389.3,77.1 396.1,77.1 403.3,94.7 403.7,94.7 
	410.5,77.1 417.3,77.1 "/>
<path id="XMLID_3_" class="st0" d="M389,102.6h-5.7v-2.9h-0.4c-1.4,2.2-3.6,3.9-7.9,3.9c-5.4,0-10-3.6-10-9c0-6.1,6.1-9.3,11.8-9.3
	c2.9,0,5.4,1.1,6.5,1.4v-0.4c0-3.2-3.2-5.4-6.5-5.4c-2.2,0-4.3,0.7-5.7,2.9l-5.4-2.2c1.8-4.3,6.5-6.1,10.8-6.1
	c7.2,0,12.6,3.9,12.6,11.5C389,87.2,389,102.6,389,102.6z M371,95.1c0,2.5,2.9,3.6,4.7,3.6c3.6,0,6.8-2.5,7.2-6.5
	c-1.8-0.7-2.9-1.4-5.7-1.4C374.6,90.4,371,91.9,371,95.1"/>
<path id="XMLID_2_" class="st0" d="M231.4,30.1c2.2-2.2,4.3-3.2,7.5-3.2c2.9,0,5.4,1.1,7.5,3.2c2.2,2.2,2.9,4.7,2.9,7.5
	c0,2.9-1.1,5.4-2.9,7.5c-2.2,2.2-4.7,3.2-7.5,3.2c-2.9,0-5.4-1.1-7.5-3.2c-2.2-2.2-2.9-4.7-2.9-7.5
	C228.6,34.8,229.6,32.3,231.4,30.1 M246.2,37.7c0-2.2-0.7-3.9-2.2-5.4c-1.4-1.4-3.2-2.2-5-2.2c-2.2,0-3.6,0.7-5,2.2
	c-1.4,1.4-2.2,3.2-2.2,5.4c0,2.2,0.7,3.9,2.2,5.4s3.2,2.2,5,2.2c2.2,0,3.6-0.7,5-2.2S246.2,39.8,246.2,37.7"/>
<path id="XMLID_1_" class="st0" d="M453.9,141.7H17.6c-10,0-17.6-7.5-17.6-17.6V17.6C0,7.5,7.5,0,17.6,0h436.7
	c10,0,17.6,7.5,17.6,17.6v94.7v0.4v11.1c0,3.9-1.1,7.5-3.2,10.4l-0.7,1.1C464.3,139.6,459.3,141.7,453.9,141.7z M17.6,5.4
	c-6.8,0-12.2,5.4-12.2,12.2v106.6c0,6.8,5.4,12.2,12.2,12.2h436.7c3.6,0,7.2-1.4,9.3-4.3l0.7-1.1c1.4-2.2,2.2-4.7,2.2-7.2v-10.4V113
	V17.6c0-6.8-5.4-12.2-12.2-12.2H17.6z"/>
</svg>
